<?xml version="1.0" encoding="UTF-8" standalone="no"?>
<!-- Created with Inkscape (http://www.inkscape.org/) -->

<svg
   width="210mm"
   height="297mm"
   viewBox="0 0 210 297"
   version="1.1"
   id="svg5"
   xml:space="preserve"
   inkscape:version="1.2.1 (9c6d41e410, 2022-07-14)"
   sodipodi:docname="LEM_Gris.svg"
   xmlns:inkscape="http://www.inkscape.org/namespaces/inkscape"
   xmlns:sodipodi="http://sodipodi.sourceforge.net/DTD/sodipodi-0.dtd"
   xmlns="http://www.w3.org/2000/svg"
   xmlns:svg="http://www.w3.org/2000/svg"><sodipodi:namedview
     id="namedview7"
     pagecolor="#505050"
     bordercolor="#eeeeee"
     borderopacity="1"
     inkscape:showpageshadow="0"
     inkscape:pageopacity="0"
     inkscape:pagecheckerboard="0"
     inkscape:deskcolor="#505050"
     inkscape:document-units="mm"
     showgrid="false"
     inkscape:zoom="0.80508929"
     inkscape:cx="531.61805"
     inkscape:cy="601.17555"
     inkscape:window-width="1920"
     inkscape:window-height="1017"
     inkscape:window-x="-8"
     inkscape:window-y="-8"
     inkscape:window-maximized="1"
     inkscape:current-layer="layer1" /><defs
     id="defs2" /><g
     inkscape:label="Capa 1"
     inkscape:groupmode="layer"
     id="layer1"><g
       id="g1769"
       transform="matrix(4.1102896,0,0,4.1102896,-154.49891,-254.0598)"
       style="fill:#aca793"><path
         style="fill:#aca793;stroke-width:0.264583"
         d="M 38.677418,124.37097 H 84.80645 c 0,0 3.306927,-0.17484 3.454325,-4.08087 0.147399,-3.90603 -3.102193,-4.45209 -3.102193,-4.45209 l -37.876324,0.0168 z"
         id="path460"
         sodipodi:nodetypes="cczccc" /><path
         style="fill:#aca793;stroke-width:0.264583"
         d="m 52.870967,110.62097 32.112902,0.17742 c 0,0 3.548387,-1.04973 3.548387,-4.43549 0,-3.38575 -3.548387,-4.70161 -3.548387,-4.70161 H 61.653226 Z"
         id="path462"
         sodipodi:nodetypes="cczccc" /><path
         style="fill:#aca793;stroke-width:0.264583"
         d="m 66.177209,96.913545 8.907267,-8.719081 9.910897,0.06273 c 0,0 3.269654,0.678451 3.248745,4.452538 -0.02091,3.774087 -3.374197,4.266543 -3.374197,4.266543 z"
         id="path1068"
         sodipodi:nodetypes="ccczcc" /><path
         style="fill:#aca793;stroke-width:0.264583"
         d="m 38.07542,121.62807 8.593627,-8.65636 0.125454,-34.750874 c 0,0 0.369187,-2.821502 2.700549,-2.664684 2.331362,0.156818 2.631266,2.852866 2.631266,2.852866 l 0.06273,29.105422 8.781811,-8.844532 -0.06273,-20.699981 c 0,0 0.08401,-2.545288 2.446733,-2.398925 2.362725,0.146364 2.696899,2.524379 2.696899,2.524379 v 15.619077 l 8.09181,-8.217265 0.18818,-14.301806 c 0,0 -1.390039,-6.490765 -8.529302,-6.762075 -7.139264,-0.27131 -9.222498,6.636622 -9.222498,6.636622 0,0 -1.804514,-6.435451 -9.039053,-6.707269 -7.234539,-0.271818 -9.15184,6.895449 -9.15184,6.895449 z"
         id="path1070"
         sodipodi:nodetypes="ccczcccczcccczczcc" /></g></g></svg>
